grf
version=1
nRows=11
nColumns=37
inDegrees=no
endheader
time	ground_force_1_vx	ground_force_1_vy	ground_force_1_vz	ground_force_1_px	ground_force_1_py	ground_force_1_pz	ground_moment_1_mx	ground_moment_1_my	ground_moment_1_mz	ground_force_2_vx	ground_force_2_vy	ground_force_2_vz	ground_force_2_px	ground_force_2_py	ground_force_2_pz	ground_moment_2_mx	ground_moment_2_my	ground_moment_2_mz	ground_force_3_vx	ground_force_3_vy	ground_force_3_vz	ground_force_3_px	ground_force_3_py	ground_force_3_pz	ground_moment_3_mx	ground_moment_3_my	ground_moment_3_mz	ground_force_4_vx	ground_force_4_vy	ground_force_4_vz	ground_force_4_px	ground_force_4_py	ground_force_4_pz	ground_moment_4_mx	ground_moment_4_my	ground_moment_4_mz
      2.10000000	      0.00000000	     -0.00000000	      0.00000000	      0.00000000	      0.00000000	      0.00000000	      0.00000000	      0.00000000	      0.00000000	     -4.12699747	     42.51439285	   -348.85269165	   -342.48516862	  -1181.91830196	      0.00000000	      0.00000000	      0.00000000	   2452.79420210	      2.61721585	    -65.73303246	   -533.33007812	   -373.18098785	   -720.04025508	      0.00000000	      0.00000000	     -0.00000000	   -311.29518504	      0.00000000	     -0.00000000	      0.00000000	      0.00000000	      0.00000000	      0.00000000	      0.00000000	      0.00000000	      0.00000000
      2.11000000	      0.00000000	     -0.00000000	      0.00000000	      0.00000000	      0.00000000	      0.00000000	      0.00000000	      0.00000000	      0.00000000	     -2.16575789	     46.50245667	   -360.25198364	   -347.16841654	  -1183.28845166	      0.00000000	      0.00000000	      0.00000000	   2102.15435446	      1.37614248	    -65.66830456	   -527.21600342	   -372.67265778	   -719.33673552	      0.00000000	      0.00000000	      0.00000000	     25.09090662	      0.00000000	     -0.00000000	      0.00000000	      0.00000000	      0.00000000	      0.00000000	      0.00000000	      0.00000000	      0.00000000
      2.12000000	      0.00000000	     -0.00000000	      0.00000000	      0.00000000	      0.00000000	      0.00000000	      0.00000000	      0.00000000	      0.00000000	     -2.81080532	     48.15169144	   -361.30310059	   -349.86594545	  -1182.76167809	      0.00000000	      0.00000000	      0.00000000	   1383.26489469	      1.22053974	    -64.82913982	   -518.49011230	   -372.03865927	   -719.59855341	      0.00000000	      0.00000000	      0.00000000	     87.01239800	      0.00000000	     -0.00000000	      0.00000000	      0.00000000	      0.00000000	      0.00000000	      0.00000000	      0.00000000	      0.00000000
      2.13000000	      0.00000000	     -0.00000000	      0.00000000	      0.00000000	      0.00000000	      0.00000000	      0.00000000	      0.00000000	      0.00000000	     -2.07614017	     46.99280930	   -356.44845581	   -352.50142743	  -1183.07860958	      0.00000000	      0.00000000	      0.00000000	   1295.44324262	      0.68718389	    -64.38650519	   -510.64178467	   -371.32718479	   -719.51365605	      0.00000000	      0.00000000	      0.00000000	    138.17409897	      0.00000000	     -0.00000000	      0.00000000	      0.00000000	      0.00000000	      0.00000000	      0.00000000	      0.00000000	      0.00000000
      2.14000000	      0.00000000	     -0.00000000	      0.00000000	      0.00000000	      0.00000000	      0.00000000	      0.00000000	      0.00000000	      0.00000000	     -2.27203584	     45.16824722	   -350.44467163	   -354.99905280	  -1182.73021372	      0.00000000	      0.00000000	      0.00000000	   1079.02430834	     -0.37585171	    -62.97336575	   -502.16885376	   -370.65526830	   -719.09632639	      0.00000000	      0.00000000	      0.00000000	    115.27151214	      0.00000000	     -0.00000000	      0.00000000	      0.00000000	      0.00000000	      0.00000000	      0.00000000	      0.00000000	      0.00000000
      2.15000000	      0.00000000	     -0.00000000	      0.00000000	      0.00000000	      0.00000000	      0.00000000	      0.00000000	      0.00000000	      0.00000000	     -1.69499969	     43.09774780	   -344.44931030	   -359.02384487	  -1181.81112244	      0.00000000	      0.00000000	      0.00000000	    955.55362019	     -1.26458699	    -60.70133580	   -493.96047974	   -370.25214858	   -718.09257628	      0.00000000	      0.00000000	      0.00000000	    151.34123327	      0.00000000	     -0.00000000	      0.00000000	      0.00000000	      0.00000000	      0.00000000	      0.00000000	      0.00000000	      0.00000000
      2.16000000	      0.00000000	     -0.00000000	      0.00000000	      0.00000000	      0.00000000	      0.00000000	      0.00000000	      0.00000000	      0.00000000	     -1.11393988	     41.68777084	   -339.22463989	   -362.93226750	  -1181.38910343	      0.00000000	      0.00000000	      0.00000000	    873.89956037	     -2.32711949	    -58.82429484	   -485.15023804	   -369.64574164	   -719.19692073	      0.00000000	      0.00000000	      0.00000000	    168.57222784	      0.00000000	     -0.00000000	      0.00000000	      0.00000000	      0.00000000	      0.00000000	      0.00000000	      0.00000000	      0.00000000
      2.17000000	      0.00000000	     -0.00000000	      0.00000000	      0.00000000	      0.00000000	      0.00000000	      0.00000000	      0.00000000	      0.00000000	      0.37981328	     40.66641617	   -335.42999268	   -365.45299740	  -1181.31100800	      0.00000000	      0.00000000	      0.00000000	    880.15661623	     -3.23677464	    -56.79084750	   -479.39440918	   -368.95325353	   -718.84271063	      0.00000000	      0.00000000	      0.00000000	    199.80203348	      0.00000000	     -0.00000000	      0.00000000	      0.00000000	      0.00000000	      0.00000000	      0.00000000	      0.00000000	      0.00000000
      2.18000000	      0.00000000	     -0.00000000	      0.00000000	      0.00000000	      0.00000000	      0.00000000	      0.00000000	      0.00000000	      0.00000000	      1.42155194	     40.68947983	   -333.13986206	   -369.00262039	  -1180.44887305	      0.00000000	      0.00000000	      0.00000000	    749.15658062	     -3.70303496	    -55.53161970	   -472.83096313	   -368.43246774	   -718.92708340	      0.00000000	      0.00000000	      0.00000000	     19.92109726	      0.00000000	     -0.00000000	      0.00000000	      0.00000000	      0.00000000	      0.00000000	      0.00000000	      0.00000000	      0.00000000
      2.19000000	      0.00000000	     -0.00000000	      0.00000000	      0.00000000	      0.00000000	      0.00000000	      0.00000000	      0.00000000	      0.00000000	      2.45170569	     41.11535263	   -332.86584473	   -372.27248860	  -1180.43632934	      0.00000000	      0.00000000	      0.00000000	    440.87511284	     -4.34683324	    -54.66829643	   -466.81573486	   -368.11177786	   -718.63621991	      0.00000000	      0.00000000	      0.00000000	     73.98889171	      0.00000000	     -0.00000000	      0.00000000	      0.00000000	      0.00000000	      0.00000000	      0.00000000	      0.00000000	      0.00000000
      2.20000000	      0.00000000	     -0.00000000	      0.00000000	      0.00000000	      0.00000000	      0.00000000	      0.00000000	      0.00000000	      0.00000000	      3.80944109	     41.96072006	   -334.03018188	   -374.69028234	  -1180.82939785	      0.00000000	      0.00000000	      0.00000000	    285.94450435	     -4.30715174	    -53.87933312	   -461.93984985	   -368.04027569	   -718.15662616	      0.00000000	      0.00000000	     -0.00000000	   -140.28785450	      0.00000000	     -0.00000000	      0.00000000	      0.00000000	      0.00000000	      0.00000000	      0.00000000	      0.00000000	      0.00000000
